<svg xmlns="http://www.w3.org/2000/svg" viewBox="0 0 67.42 96.64"><title>CNIS</title><path d="M70.71,43.32l-11.2,0c.21-5.6.08-12.74.08-18.66,0-4.23-4.17-5.5-6.53-5.39l-35.13,0L28.69,8.48h42V43.32ZM9.76,42V76.82h42L62.54,66.08l-35.12,0c-2.37.11-6.53-1.16-6.54-5.39,0-5.92-.13-13.06.08-18.66Z" transform="translate(-6.53 -5.88)" style="fill:#d87a2f;fill-rule:evenodd"/><path d="M45.91,43.68c3.14,0,5.62,0,9.61,0V27.78a4.76,4.76,0,0,0-4.82-4.72l-40.17.05L27.22,6.17H73.67V50.54l-31.28.09c-6.33,0-3.38-9-7.82-9-3.15,0-5.62,0-9.62,0v15.9a4.77,4.77,0,0,0,4.83,4.72l40.17,0L53.26,79.13H6.81V34.75l31.27-.09c6.83,0,2.79,8.93,7.83,9Zm24.81-.36V8.48h-42L17.93,19.21l35.13,0c2.36-.11,6.53,1.16,6.53,5.39,0,5.92.13,13.06-.08,18.66l11.21,0ZM9.76,42V76.82h42L62.54,66.08l-35.12,0c-2.37.11-6.53-1.16-6.54-5.39,0-5.92-.13-13.06.08-18.66Z" transform="translate(-6.53 -5.88)" style="fill:#1b1b1b;stroke:#fff;stroke-miterlimit:22.9256;stroke-width:0.5669px;fill-rule:evenodd"/><path d="M23.54,102.14H19.26V99.06H8V81.19h6.2v14.3h1.84V81.19h6.21v14.3h1.26Z" transform="translate(-6.53 -5.88)" style="fill:#000000;stroke:#fff;stroke-miterlimit:10;stroke-width:0.75px"/><path d="M39.43,81.2V99.06h-6.2v-7.5H31.38v7.5H25.19V81.2h6.19v6.39h1.85V81.2Z" transform="translate(-6.53 -5.88)" style="fill:#000000;stroke:#fff;stroke-miterlimit:10;stroke-width:0.75px"/><path d="M55.74,99.06H50.56V90.93l-3.22,8.13H41.91V81.19h5.18v8.06l3.47-8.06h5.18Z" transform="translate(-6.53 -5.88)" style="fill:#000000;stroke:#fff;stroke-miterlimit:10;stroke-width:0.75px"/><path d="M72.66,89H66.47V85.87a4.12,4.12,0,0,0-.2-1.69q-.19-.33-.87-.33c-.51,0-.83.13-1,.41A4.62,4.62,0,0,0,64.22,86v8.3a4.35,4.35,0,0,0,.21,1.7,1.25,1.25,0,0,0,1.83,0,5,5,0,0,0,.21-1.87V91.9h6.19v.7a10.42,10.42,0,0,1-.52,3.93,4.6,4.6,0,0,1-2.31,2,10,10,0,0,1-4.4.87,11.76,11.76,0,0,1-4.49-.74,4.16,4.16,0,0,1-2.34-2A10.31,10.31,0,0,1,58,92.72V87.5a17.22,17.22,0,0,1,.18-2.9,3.61,3.61,0,0,1,1-1.86,5.93,5.93,0,0,1,2.43-1.4,11.36,11.36,0,0,1,3.56-.52,11.12,11.12,0,0,1,4.52.8,4.4,4.4,0,0,1,2.33,2,9,9,0,0,1,.56,3.68Z" transform="translate(-6.53 -5.88)" style="fill:#000000;stroke:#fff;stroke-miterlimit:10;stroke-width:0.75px"/></svg>
